<svg xmlns="http://www.w3.org/2000/svg" width="16" height="16" viewBox="0 0 16 16"><defs><style>.a{fill:#fff;}</style></defs><path class="a" d="M3.75,105.083a4.224,4.224,0,0,1,.6-2.171v-2.7h-2.7a8,8,0,0,0,0,9.737h2.7v-2.7A4.224,4.224,0,0,1,3.75,105.083Z" transform="translate(0 -97.083)"/><path class="a" d="M197.875,373.556,196,375.431l1.875,1.875a7.939,7.939,0,0,0,4.868-1.651v-2.694h-2.694A4.249,4.249,0,0,1,197.875,373.556Z" transform="translate(-189.875 -361.306)"/><path class="a" d="M55.52,325.477l-2.7,2.7a8.126,8.126,0,0,0,.692.789,7.948,7.948,0,0,0,5.657,2.343v-3.75A4.252,4.252,0,0,1,55.52,325.477Z" transform="translate(-51.172 -315.306)"/><path class="a" d="M264,199.158a8.069,8.069,0,0,0-.131-1.449l-.07-.384H256v3.75h3.8a4.231,4.231,0,0,1-1.621,1.739l2.694,2.694a8.126,8.126,0,0,0,.789-.692A7.948,7.948,0,0,0,264,199.158Z" transform="translate(-248 -191.158)"/><path class="a" d="M200.88,4.995l.331.331,2.652-2.652-.331-.331A7.948,7.948,0,0,0,197.875,0L196,1.875l1.875,1.875A4.222,4.222,0,0,1,200.88,4.995Z" transform="translate(-189.875)"/><path class="a" d="M59.171,3.75V0a7.948,7.948,0,0,0-5.657,2.343,8.12,8.12,0,0,0-.692.789l2.7,2.7A4.252,4.252,0,0,1,59.171,3.75Z" transform="translate(-51.171 0)"/></svg>