<svg xmlns="http://www.w3.org/2000/svg" width="138.02" height="16" viewBox="0 0 138.02 16">
  <path id="DoorDash_Logo" d="M40.04,4.548V11.6H41.8a3.355,3.355,0,0,0,2.39-1.052,3.53,3.53,0,0,0,.963-2.478,3.47,3.47,0,0,0-.95-2.489,3.3,3.3,0,0,0-2.4-1.031H40.041ZM41.8,2.337a5.663,5.663,0,0,1,5.754,5.729A5.675,5.675,0,0,1,41.8,13.81H37.921a.281.281,0,0,1-.278-.285V2.634a.282.282,0,0,1,.278-.286L41.8,2.337Zm14.2,9.5a3.676,3.676,0,0,0,3.4-2.319,3.84,3.84,0,0,0-.787-4.111,3.609,3.609,0,0,0-4.006-.826,3.773,3.773,0,0,0-2.276,3.48A3.73,3.73,0,0,0,56,11.842m0-9.765a5.989,5.989,0,1,1-6.062,5.989A6,6,0,0,1,56,2.078m14.46,9.765a3.725,3.725,0,0,0,3.667-3.773,3.677,3.677,0,1,0-7.352,0,3.825,3.825,0,0,0,1.079,2.671,3.635,3.635,0,0,0,2.6,1.105m0-9.765A5.99,5.99,0,1,1,64.37,8.066a5.993,5.993,0,0,1,6.084-5.989m14.112,2.47H82.088V7.581h2.478a1.434,1.434,0,0,0,1.065-.406,1.5,1.5,0,0,0,.454-1.068,1.526,1.526,0,0,0-.43-1.117,1.448,1.448,0,0,0-1.088-.44v0ZM79.691,2.634a.283.283,0,0,1,.279-.286h4.666A3.726,3.726,0,0,1,88.47,6.119a3.718,3.718,0,0,1-2,3.359l2.152,3.9a.291.291,0,0,1,.011.3.276.276,0,0,1-.263.14H86.485a.278.278,0,0,1-.253-.154L84.158,9.809H82.079v3.707a.281.281,0,0,1-.278.286H79.982a.281.281,0,0,1-.278-.286L79.692,2.635ZM94.718,4.6v7.05h1.757A3.355,3.355,0,0,0,98.866,10.6a3.529,3.529,0,0,0,.965-2.476,3.47,3.47,0,0,0-.947-2.493A3.3,3.3,0,0,0,96.476,4.6H94.718Zm1.757-2.213a5.667,5.667,0,0,1,5.754,5.738,5.667,5.667,0,0,1-5.754,5.738H92.61a.281.281,0,0,1-.278-.286V2.689A.282.282,0,0,1,92.61,2.4l3.866-.013Zm13.064,2.8-1.36,3.77H110.9Zm-2.157,5.9-.89,2.51a.278.278,0,0,1-.278.2h-1.931a.275.275,0,0,1-.254-.12.291.291,0,0,1-.024-.285l4.171-10.88a.278.278,0,0,1,.278-.188h2.16a.278.278,0,0,1,.279.188l4.171,10.88a.291.291,0,0,1-.025.285.275.275,0,0,1-.254.119h-1.93a.278.278,0,0,1-.278-.2l-.89-2.51h-4.307ZM117.3,5.437c0-1.8,1.518-3.359,3.916-3.359A4.891,4.891,0,0,1,124.7,3.421a.289.289,0,0,1,0,.419l-1.069,1.089a.274.274,0,0,1-.394,0,2.776,2.776,0,0,0-1.855-.75c-.959,0-1.668.571-1.668,1.23,0,2.13,5.667.9,5.667,5,0,2.077-1.533,3.648-4.237,3.648A5.6,5.6,0,0,1,117.1,12.39a.289.289,0,0,1,0-.419l1.034-1.061a.275.275,0,0,1,.4,0,3.527,3.527,0,0,0,2.444,1.022c1.2,0,1.988-.656,1.988-1.478,0-2.13-5.664-.9-5.664-5M135.652,2.62V6.925h-4.8V2.62a.281.281,0,0,0-.278-.285h-1.819a.281.281,0,0,0-.278.285V13.5a.283.283,0,0,0,.278.286h1.819a.283.283,0,0,0,.278-.286V9.124h4.793V13.5a.283.283,0,0,0,.278.286h1.819a.282.282,0,0,0,.278-.286V2.62a.281.281,0,0,0-.278-.285h-1.819a.281.281,0,0,0-.274.285ZM27.43,3.787A7.254,7.254,0,0,0,21.014,0H.7A.7.7,0,0,0,.056.428a.684.684,0,0,0,.151.749L4.632,5.569a2.094,2.094,0,0,0,1.477.607H20.431a1.823,1.823,0,1,1,.038,3.645H10.595a.7.7,0,0,0-.644.427A.684.684,0,0,0,10.1,11l4.428,4.4A2.1,2.1,0,0,0,16.007,16h4.466A8.089,8.089,0,0,0,27.43,3.784" transform="translate(-0.003)" fill="#fff"/>
</svg>
