<svg xmlns="http://www.w3.org/2000/svg" width="11.334" height="16" viewBox="0 0 11.334 16"><defs><style>.a{fill:#fff;}.b{fill:#ec407a;}</style></defs><g transform="translate(-74.661)"><path class="a" d="M84.6,0H76.166a1.409,1.409,0,0,0-1.505,1.445V15c0,.668.336.865.52.942a.91.91,0,0,0,.331.057.954.954,0,0,0,.687-.276l4.072-4.8c.065-.077.1-.077.141-.077h2.534a1.337,1.337,0,0,0,1.408-1.215c.1-.383,1.213-5.858,1.559-7.588C86.172.712,85.836,0,84.6,0Z"/><path class="b" d="M144.561,70.461a.491.491,0,0,1-.488.39h-1.662a2.129,2.129,0,0,0-1.666.783l-2.084,2.455V64.5a.5.5,0,0,1,.5-.5h6.11a.5.5,0,0,1,.491.594c-.091.452-.2.966-.305,1.5a.5.5,0,0,1-.49.4h-2.806a.5.5,0,0,0-.5.5v1a.5.5,0,0,0,.5.5h2.192a.5.5,0,0,1,.489.6C144.733,69.635,144.635,70.1,144.561,70.461Z" transform="translate(-62 -62)"/></g></svg>