<svg xmlns="http://www.w3.org/2000/svg" width="12" height="16" viewBox="0 0 12 16"><defs><style>.a{fill:#fff;}</style></defs><path class="a" d="M66.015.729A4.66,4.66,0,0,1,69.034.037c.644.123.98.48.984.916L70.055,6.5c0,.436-.225.836-.507.89a1.088,1.088,0,0,1-.93-.577L65.685,2.056c-.227-.371-.685-.535.33-1.327Zm-.974,10.55,2.953-1.037a1.273,1.273,0,0,0,.821-.9,1,1,0,0,0-.665-.925L65.031,7.192c-.406-.16-.875.218-1,.836,0,0-.074,2.153,0,2.6a.834.834,0,0,0,1.008.653Zm5.151.519c.008-.437-.226-.814-.522-.841a1.49,1.49,0,0,0-1.047.556l-2.06,2.452a.915.915,0,0,0,.268,1.264l2.154.742a.992.992,0,0,0,1.14-.726l.067-3.447Zm5.119-.571-2.583-.737a1.426,1.426,0,0,0-1.055.027c-.161.133-.121.556.09.938l1.63,2.961c.21.381,1.054.316,1.286-.054a14.443,14.443,0,0,0,1.163-1.978.881.881,0,0,0-.531-1.157Zm.629-4.164a6.856,6.856,0,0,0-1.361-1.855.827.827,0,0,0-1.218,0L71.7,7.178a1.084,1.084,0,0,0-.17,1.165,1.094,1.094,0,0,0,1.115.389L75.52,8.2c.52-.124.539-.764.42-1.139Z" transform="translate(-64.001 0)"/></svg>